<?xml version="1.0"?>
<svg xmlns="http://www.w3.org/2000/svg" xmlns:xlink="http://www.w3.org/1999/xlink" version="1.1" viewBox="0 0 192 192" width="100px" height="100px"><g fill="none" fill-rule="nonzero" stroke="none" stroke-width="1" stroke-linecap="butt" stroke-linejoin="miter" stroke-miterlimit="10" stroke-dasharray="" stroke-dashoffset="0" font-family="none" font-weight="none" font-size="none" text-anchor="none" style="mix-blend-mode: normal"><path d="M0,192v-192h192v192z" fill="none"/><g id="Layer_1"><g fill="#c7ede6"><path d="M169.344,108.672c0.576,-1.152 1.152,-2.496 1.536,-3.648c4.992,-14.784 -2.496,-32.64 -18.624,-36.864c-1.728,-21.888 -17.088,-36.672 -34.368,-39.36c-19.776,-2.88 -37.824,9.6 -43.968,29.568c-7.296,-2.496 -14.4,-2.304 -20.928,1.728c-3.072,1.344 -5.76,3.456 -8.256,6.144c-3.648,4.032 -5.952,9.024 -6.912,14.4c-1.344,0.192 -2.88,0.384 -4.224,0.96c-7.68,2.688 -12.672,8.448 -14.016,17.088c-0.768,5.376 0.768,10.752 1.728,12.864c3.648,8.448 12.288,13.44 20.928,12.096c0.384,0 1.152,0.192 1.344,0.384c0.384,13.632 7.104,25.728 16.896,32.448c15.936,10.944 36.288,7.68 49.344,-7.488c5.568,5.568 12.096,8.448 19.776,7.488c7.68,-0.96 13.632,-5.184 18.048,-12.096c1.92,0.576 3.84,1.344 5.952,1.536c7.68,0.768 14.016,-2.304 18.624,-9.216c1.728,-2.688 3.456,-6.144 3.456,-12.096c0.192,-6.336 -2.304,-12.096 -6.336,-15.936z"/></g><g fill="#ffffff"><g><path d="M162.24,119.04h-19.2c-0.576,0 -0.96,-0.384 -0.96,-0.96c0,-0.576 0.384,-0.96 0.96,-0.96h19.2c0.576,0 0.96,0.384 0.96,0.96c0,0.576 -0.384,0.96 -0.96,0.96z"/></g><g><path d="M169.92,119.04h-3.84c-0.576,0 -0.96,-0.384 -0.96,-0.96c0,-0.576 0.384,-0.96 0.96,-0.96h3.84c0.576,0 0.96,0.384 0.96,0.96c0,0.576 -0.384,0.96 -0.96,0.96z"/></g><g><path d="M179.52,122.88h-19.2c-0.576,0 -0.96,-0.384 -0.96,-0.96c0,-0.576 0.384,-0.96 0.96,-0.96h19.2c0.576,0 0.96,0.384 0.96,0.96c0,0.576 -0.384,0.96 -0.96,0.96z"/></g><g><path d="M156.48,122.88h-1.92c-0.576,0 -0.96,-0.384 -0.96,-0.96c0,-0.576 0.384,-0.96 0.96,-0.96h1.92c0.576,0 0.96,0.384 0.96,0.96c0,0.576 -0.384,0.96 -0.96,0.96z"/></g><g><path d="M150.528,122.88h-3.648c-0.576,0 -0.96,-0.384 -0.96,-0.96c0,-0.576 0.384,-0.96 0.96,-0.96h3.648c0.576,0 0.96,0.384 0.96,0.96c0,0.576 -0.384,0.96 -0.96,0.96z"/></g><g><path d="M168,115.2h-9.6c-0.576,0 -0.96,-0.384 -0.96,-0.96c0,-0.576 0.384,-0.96 0.96,-0.96h9.6c0.576,0 0.96,0.384 0.96,0.96c0,0.576 -0.384,0.96 -0.96,0.96z"/></g><g><path d="M162.24,126.72h-3.84c-0.576,0 -0.96,-0.384 -0.96,-0.96c0,-0.576 0.384,-0.96 0.96,-0.96h3.84c0.576,0 0.96,0.384 0.96,0.96c0,0.576 -0.384,0.96 -0.96,0.96z"/></g></g><g fill="#ffffff"><g><path d="M31.488,96h-19.008c-0.576,0 -0.96,-0.384 -0.96,-0.96c0,-0.576 0.384,-0.96 0.96,-0.96h19.008c0.576,0 0.96,0.384 0.96,0.96c0,0.576 -0.384,0.96 -0.96,0.96z"/></g><g><path d="M37.44,96h-1.92c-0.576,0 -0.96,-0.384 -0.96,-0.96c0,-0.576 0.384,-0.96 0.96,-0.96h1.92c0.576,0 0.96,0.384 0.96,0.96c0,0.576 -0.384,0.96 -0.96,0.96z"/></g><g><path d="M47.04,99.84h-17.28c-0.576,0 -0.96,-0.384 -0.96,-0.96c0,-0.576 0.384,-0.96 0.96,-0.96h17.28c0.576,0 0.96,0.384 0.96,0.96c0,0.576 -0.384,0.96 -0.96,0.96z"/></g><g><path d="M25.92,99.84h-1.92c-0.576,0 -0.96,-0.384 -0.96,-0.96c0,-0.576 0.384,-0.96 0.96,-0.96h1.92c0.576,0 0.96,0.384 0.96,0.96c0,0.576 -0.384,0.96 -0.96,0.96z"/></g><g><path d="M20.16,99.84h-3.84c-0.576,0 -0.96,-0.384 -0.96,-0.96c0,-0.576 0.384,-0.96 0.96,-0.96h3.84c0.576,0 0.96,0.384 0.96,0.96c0,0.576 -0.384,0.96 -0.96,0.96z"/></g><g><path d="M31.68,103.68h-3.84c-0.576,0 -0.96,-0.384 -0.96,-0.96c0,-0.576 0.384,-0.96 0.96,-0.96h3.84c0.576,0 0.96,0.384 0.96,0.96c0,0.576 -0.384,0.96 -0.96,0.96z"/></g><g><path d="M37.44,86.4c-0.384,0 -1.536,0 -1.92,0c-0.576,0 -0.96,0.384 -0.96,0.96c0,0.576 0.384,0.96 0.96,0.96c0.384,0 1.536,0 1.92,0c0.576,0 0.96,-0.384 0.96,-0.96c0,-0.576 -0.384,-0.96 -0.96,-0.96z"/></g><g><path d="M37.44,90.24c-0.384,0 -9.216,0 -9.6,0c-0.576,0 -0.96,0.384 -0.96,0.96c0,0.576 0.384,0.96 0.96,0.96c0.384,0 9.216,0 9.6,0c0.576,0 0.96,-0.384 0.96,-0.96c0,-0.576 -0.384,-0.96 -0.96,-0.96z"/></g><g><path d="M47.04,94.08c-0.384,0 -5.376,0 -5.76,0c-0.576,0 -0.96,0.384 -0.96,0.96c0,0.576 0.384,0.96 0.96,0.96c0.384,0 5.376,0 5.76,0c0.576,0 0.96,-0.384 0.96,-0.96c0,-0.576 -0.384,-0.96 -0.96,-0.96z"/></g></g><g><g fill="#fdfcef"><path d="M124.992,77.76c0,0 -6.912,0 -11.712,0c-4.8,0 -8.64,-3.84 -8.64,-8.64c0,-4.416 3.456,-8.064 7.872,-8.64c0,-0.384 -0.192,-0.768 -0.192,-0.96c0,-4.8 3.84,-8.64 8.64,-8.64c2.688,0 5.184,1.344 6.72,3.264c0.192,-4.992 4.416,-9.024 9.6,-9.024c5.376,0 9.6,4.224 9.6,9.6c0,0.768 -0.192,1.728 -0.384,2.496c1.152,-1.536 3.072,-2.496 5.184,-2.496c3.456,0 6.144,2.496 6.72,5.952c0.384,0 0.768,-0.192 0.96,-0.192c4.8,0 8.64,3.84 8.64,8.64c0,4.8 -3.84,8.64 -8.64,8.64c-4.8,0 -18.24,0 -18.24,0h-10.368v0.96h-5.76z"/></g><g fill="#472b29"><path d="M137.28,44.16c5.76,0 10.56,4.8 10.56,10.56v0c1.152,-0.768 2.496,-0.96 3.84,-0.96c3.456,0 6.528,2.496 7.488,5.76h0.192c5.376,0 9.6,4.224 9.6,9.6c0,5.376 -4.224,9.6 -9.6,9.6h-28.608c-0.576,0 -0.96,-0.384 -0.96,-0.96c0,-0.576 0.384,-0.96 0.96,-0.96h28.608c4.224,0 7.68,-3.456 7.68,-7.68c0,-4.224 -3.456,-7.68 -7.68,-7.68c-0.192,0 -0.384,0 -0.576,0h-0.192c0,0 0,0 -0.192,0c-0.384,0 -0.96,-0.384 -0.96,-0.768c-0.384,-2.88 -2.88,-4.992 -5.76,-4.992c-1.728,0 -3.264,0.768 -4.416,2.112c-0.192,0.192 -0.384,0.384 -0.768,0.384c-0.192,0 -0.384,0 -0.384,-0.192c-0.384,-0.192 -0.576,-0.576 -0.576,-1.152c0.192,-0.768 0.384,-1.536 0.384,-2.304c0,-4.8 -3.84,-8.64 -8.64,-8.64c-4.608,0 -8.256,3.648 -8.64,8.256c0,0.384 -0.384,0.768 -0.576,0.96c-0.192,0 -0.192,0 -0.384,0c-0.384,0 -0.576,-0.192 -0.768,-0.384c-1.536,-1.92 -3.648,-2.88 -5.952,-2.88c-4.224,0 -7.68,3.456 -7.68,7.68c0,0.192 0,0.384 0,0.576v0.192c0,0.192 0,0.576 -0.192,0.768c-0.192,0.192 -0.384,0.384 -0.576,0.384c-4.032,0.384 -6.912,3.648 -6.912,7.68c0,4.224 3.456,7.68 7.68,7.68h11.712c0.576,0 0.96,0.384 0.96,0.96c0,0.576 -0.384,0.96 -0.96,0.96h-11.712c-5.376,0 -9.6,-4.224 -9.6,-9.6c0,-4.608 3.264,-8.448 7.68,-9.408v-0.192c0,-5.376 4.224,-9.6 9.6,-9.6c2.304,0 4.416,0.768 6.144,2.304c1.152,-4.608 5.184,-8.064 10.176,-8.064z"/></g><g fill="#472b29"><path d="M140.16,57.6c2.688,0 4.992,1.92 5.568,4.416c0.768,-0.384 1.536,-0.576 2.304,-0.576c2.304,0 4.224,1.728 4.608,4.032c0.384,0 0.768,-0.192 1.152,-0.192c2.88,0 5.376,2.304 5.568,5.184c0,0.192 -0.192,0.576 -0.384,0.576v0c-0.192,0 -0.384,-0.192 -0.384,-0.384c-0.192,-2.496 -2.304,-4.416 -4.608,-4.416c-0.384,0 -0.96,0 -1.344,0.192c0,0 0,0 -0.192,0c-0.192,0 -0.192,0 -0.384,-0.192c-0.192,0 -0.192,-0.192 -0.192,-0.384c0,-1.92 -1.536,-3.648 -3.648,-3.648c-0.768,0 -1.728,0.384 -2.304,0.96c0,0 -0.192,0.192 -0.384,0.192h-0.192c-0.192,0 -0.192,-0.192 -0.384,-0.384c-0.192,-2.496 -2.304,-4.416 -4.8,-4.416c-0.384,0 -0.768,0 -1.344,0.192c0,0 0,0 -0.192,0c-0.192,0 -0.384,-0.192 -0.384,-0.384c0,-0.192 0,-0.576 0.384,-0.576c0.576,-0.192 0.96,-0.192 1.536,-0.192z"/></g><g fill="#472b29"><path d="M113.472,60.48c2.496,0 4.8,1.728 5.568,4.224c0,0.192 0,0.576 -0.384,0.576c0,0 0,0 -0.192,0c-0.192,0 -0.384,-0.192 -0.384,-0.384c-0.576,-2.112 -2.496,-3.456 -4.608,-3.456c-0.192,0 -0.384,0 -0.576,0v0c-0.192,0 -0.384,-0.192 -0.384,-0.384c0,-0.192 0.192,-0.576 0.384,-0.576c0,0 0.384,0 0.576,0z"/></g></g><g fill="#f69272"><path d="M79.68,144.576c-7.296,0 -13.056,-5.952 -13.056,-13.056v-59.328c0,-7.296 5.952,-13.248 13.056,-13.248h42.048c7.296,0 13.056,5.952 13.056,13.248v59.328c0,7.296 -5.952,13.056 -13.056,13.056z"/></g><g fill="#fae8e6"><path d="M123.84,129.216v-49.92c0,-2.496 1.92,-4.416 4.032,-4.416h6.528v54.336z"/></g><g fill="#472b29"><path d="M121.92,60.288c6.528,0 11.712,5.376 11.712,11.712v59.328c0,6.528 -5.376,11.904 -11.904,11.904h-42.048c-6.528,0 -11.904,-5.376 -11.904,-11.904v-59.328c0,-6.528 5.376,-11.712 11.904,-11.712h42.24M121.92,57.6h-42.048c-8.064,0 -14.592,6.528 -14.592,14.4v59.328c0,8.064 6.528,14.592 14.4,14.592h42.048c8.064,0 14.592,-6.528 14.592,-14.592v-59.328c0,-7.872 -6.528,-14.4 -14.4,-14.4z"/></g><g fill="#472b29"><path d="M123.84,140.16c-0.576,0 -0.96,-0.384 -0.96,-0.96v-58.944c0,-2.88 2.496,-5.376 5.376,-5.376h7.104c0.576,0 0.96,0.384 0.96,0.96c0,0.576 -0.384,0.96 -0.96,0.96h-7.104c-1.92,0 -3.456,1.536 -3.456,3.456v58.944c0,0.576 -0.384,0.96 -0.96,0.96z"/></g><g fill="#fefdef"><path d="M84.672,102.528h26.304c1.728,0 3.264,-1.536 3.264,-3.264v-18.432c0,-1.728 -1.536,-3.264 -3.264,-3.264h-26.304c-1.728,0 -3.264,1.536 -3.264,3.264v18.432c0.192,1.92 1.536,3.264 3.264,3.264z"/></g><g fill="#472b29"><path d="M95.04,78.72h-3.84c-0.576,0 -0.96,-0.384 -0.96,-0.96c0,-0.576 0.384,-0.96 0.96,-0.96h3.84c0.576,0 0.96,0.384 0.96,0.96c0,0.576 -0.384,0.96 -0.96,0.96z"/></g><g fill="#472b29"><path d="M110.976,103.68h-26.304c-2.112,0 -4.032,-1.92 -4.032,-4.224v-18.432c0,-2.304 1.92,-4.224 4.032,-4.224h2.688c0.576,0 0.96,0.384 0.96,0.96c0,0.576 -0.384,0.96 -0.96,0.96h-2.688c-1.152,0 -2.112,0.96 -2.112,2.304v18.432c0,1.344 0.96,2.304 2.112,2.304h26.304c1.152,0 2.304,-0.96 2.304,-2.304v-18.432c0,-1.344 -0.96,-2.304 -2.304,-2.304h-12.096c-0.576,0 -0.96,-0.384 -0.96,-0.96c0,-0.576 0.384,-0.96 0.96,-0.96h12.096c2.304,0 4.224,1.92 4.224,4.224v18.432c0,2.304 -1.92,4.224 -4.224,4.224z"/></g><g fill="#472b29"><path d="M72,74.88h-9.6c-0.576,0 -0.96,-0.384 -0.96,-0.96c0,-0.576 0.384,-0.96 0.96,-0.96h9.6c0.576,0 0.96,0.384 0.96,0.96c0,0.576 -0.384,0.96 -0.96,0.96z"/></g><g fill="#472b29"><path d="M133.44,86.4h-9.6c-0.576,0 -0.96,-0.384 -0.96,-0.96c0,-0.576 0.384,-0.96 0.96,-0.96h9.6c0.576,0 0.96,0.384 0.96,0.96c0,0.576 -0.384,0.96 -0.96,0.96z"/></g><g fill="#472b29"><path d="M133.44,97.92h-9.6c-0.576,0 -0.96,-0.384 -0.96,-0.96c0,-0.576 0.384,-0.96 0.96,-0.96h9.6c0.576,0 0.96,0.384 0.96,0.96c0,0.576 -0.384,0.96 -0.96,0.96z"/></g><g fill="#472b29"><path d="M133.44,107.52h-9.6c-0.576,0 -0.96,-0.384 -0.96,-0.96c0,-0.576 0.384,-0.96 0.96,-0.96h9.6c0.576,0 0.96,0.384 0.96,0.96c0,0.576 -0.384,0.96 -0.96,0.96z"/></g><g fill="#472b29"><path d="M133.44,119.04h-9.6c-0.576,0 -0.96,-0.384 -0.96,-0.96c0,-0.576 0.384,-0.96 0.96,-0.96h9.6c0.576,0 0.96,0.384 0.96,0.96c0,0.576 -0.384,0.96 -0.96,0.96z"/></g><g fill="#472b29"><path d="M133.44,130.56h-9.6c-0.576,0 -0.96,-0.384 -0.96,-0.96c0,-0.576 0.384,-0.96 0.96,-0.96h9.6c0.576,0 0.96,0.384 0.96,0.96c0,0.576 -0.384,0.96 -0.96,0.96z"/></g><g fill="#472b29"><path d="M72,84.48h-9.6c-0.576,0 -0.96,-0.384 -0.96,-0.96c0,-0.576 0.384,-0.96 0.96,-0.96h9.6c0.576,0 0.96,0.384 0.96,0.96c0,0.576 -0.384,0.96 -0.96,0.96z"/></g><g fill="#472b29"><path d="M72,94.08h-9.6c-0.576,0 -0.96,-0.384 -0.96,-0.96c0,-0.576 0.384,-0.96 0.96,-0.96h9.6c0.576,0 0.96,0.384 0.96,0.96c0,0.576 -0.384,0.96 -0.96,0.96z"/></g><g fill="#472b29"><path d="M72,103.68h-9.6c-0.576,0 -0.96,-0.384 -0.96,-0.96c0,-0.576 0.384,-0.96 0.96,-0.96h9.6c0.576,0 0.96,0.384 0.96,0.96c0,0.576 -0.384,0.96 -0.96,0.96z"/></g><g fill="#472b29"><path d="M72,113.28h-9.6c-0.576,0 -0.96,-0.384 -0.96,-0.96c0,-0.576 0.384,-0.96 0.96,-0.96h9.6c0.576,0 0.96,0.384 0.96,0.96c0,0.576 -0.384,0.96 -0.96,0.96z"/></g><g fill="#472b29"><path d="M71.424,120.96h-9.024c-0.576,0 -0.96,-0.384 -0.96,-0.96c0,-0.576 0.384,-0.96 0.96,-0.96h9.024c0.576,0 0.96,0.384 0.96,0.96c0,0.576 -0.384,0.96 -0.96,0.96z"/></g><g fill="#472b29"><path d="M71.424,130.176h-9.024c-0.576,0 -0.96,-0.384 -0.96,-0.96c0,-0.576 0.384,-0.96 0.96,-0.96h9.024c0.576,0 0.96,0.384 0.96,0.96c0,0.576 -0.384,0.96 -0.96,0.96z"/></g><g><g fill="#a3a3cd"><path d="M97.92,91.584c-2.688,0 -4.8,-2.112 -4.8,-4.8c0,-2.688 2.112,-4.8 4.8,-4.8c2.688,0 4.8,2.112 4.8,4.8c0,2.688 -2.112,4.8 -4.8,4.8z"/></g><g fill="#472b29"><path d="M97.92,83.136c2.112,0 3.84,1.728 3.84,3.84c0,2.112 -1.728,3.84 -3.84,3.84c-2.112,0 -3.84,-1.728 -3.84,-3.84c0,-2.112 1.728,-3.84 3.84,-3.84M97.92,81.216c-3.072,0 -5.76,2.496 -5.76,5.76c0,3.264 2.496,5.76 5.76,5.76c3.264,0 5.76,-2.496 5.76,-5.76c0,-3.264 -2.496,-5.76 -5.76,-5.76z"/></g></g><g><g fill="#a3a3cd"><path d="M89.28,102.72c0.384,-5.376 4.032,-9.792 8.64,-9.792c4.608,0 8.256,4.224 8.64,9.792z"/></g><g fill="#472b29"><path d="M97.92,93.888c3.648,0 6.912,3.456 7.488,7.872h-14.976c0.576,-4.416 3.84,-7.872 7.488,-7.872M97.92,91.968c-5.376,0 -9.6,5.184 -9.6,11.712h19.2c0,-6.528 -4.224,-11.712 -9.6,-11.712z"/></g></g><g><g fill="#a3a3cd"><path d="M85.44,150.144l-3.84,1.536v-6.72h7.68v6.72z"/></g><g fill="#472b29"><path d="M88.32,145.92v4.416l-2.304,-0.768l-0.768,-0.192l-0.768,0.192l-1.92,0.768v-4.416h5.76M90.24,144h-9.6v9.024l4.8,-1.728l4.8,1.728v-9.024z"/></g></g><g><g fill="#fdfcef"><path d="M66.24,139.2c0,0 3.072,0 6.72,0c3.648,0 6.72,-3.072 6.72,-6.72c0,-3.456 -2.496,-6.144 -5.952,-6.72c0,-0.384 0.192,-0.768 0.192,-0.96c0,-3.648 -3.072,-6.72 -6.72,-6.72c-1.92,0 -3.84,0.96 -4.992,2.304c-0.768,-3.456 -3.84,-6.144 -7.488,-6.144c-4.224,0 -7.68,3.456 -7.68,7.68c0,0.384 0,0.768 0.192,1.152c-0.768,-0.576 -1.92,-1.152 -3.072,-1.152c-2.304,0 -4.224,1.728 -4.8,4.032c-0.384,0 -0.768,-0.192 -0.96,-0.192c-3.648,0 -6.72,3.072 -6.72,6.72c0,3.648 3.072,6.72 6.72,6.72c3.648,0 14.4,0 14.4,0v0.96h13.44z"/></g><g fill="#472b29"><path d="M69.696,130.56c-0.192,0 -0.576,-0.192 -0.576,-0.576c0,-2.304 1.92,-4.224 4.224,-4.224c0,0 1.344,0 2.304,0.192c0.192,0 0.384,0.384 0.384,0.576c0,0.192 -0.384,0.384 -0.576,0.384c-0.768,-0.192 -2.112,-0.192 -2.112,-0.192c-1.728,0 -3.264,1.536 -3.264,3.264c0,0.384 -0.192,0.576 -0.384,0.576z"/></g><g fill="#472b29"><circle cx="29.5" cy="72.5" transform="scale(1.92,1.92)" r="0.5"/></g><g fill="#472b29"><path d="M72.96,140.16h-6.72c-0.576,0 -0.96,-0.384 -0.96,-0.96c0,-0.576 0.384,-0.96 0.96,-0.96h6.72c3.264,0 5.76,-2.496 5.76,-5.76c0,-2.88 -2.112,-5.376 -4.992,-5.76c-0.192,0 -0.576,-0.192 -0.576,-0.384c0,-0.192 -0.192,-0.384 -0.192,-0.768c0,-0.384 0,-0.576 0,-0.96c0,-3.264 -2.496,-5.76 -5.76,-5.76c-1.536,0 -3.072,0.768 -4.224,1.92c-0.192,0.192 -0.576,0.384 -0.96,0.192c-0.384,0 -0.576,-0.384 -0.768,-0.768c-0.576,-3.072 -3.456,-5.376 -6.528,-5.376c-3.648,0 -6.72,3.072 -6.72,6.72c0,0.192 0,0.576 0,0.768c0,0.384 -0.192,0.768 -0.384,0.96c-0.192,0.192 -0.768,0.192 -1.152,0c-0.576,0 -1.536,-0.384 -2.304,-0.384c-1.92,0 -3.456,1.344 -3.84,3.072c0,0.576 -0.576,0.768 -1.152,0.768c-0.384,0 -0.576,0 -0.96,0c-3.264,0 -5.76,2.496 -5.76,5.76c0,3.264 2.496,5.76 5.76,5.76h14.4c0.576,0 0.96,0.384 0.96,0.96c0,0.576 -0.192,0.96 -0.768,0.96h-14.4c-4.224,0 -7.68,-3.456 -7.68,-7.68c0,-4.224 3.456,-7.68 7.68,-7.68c0.192,0 0.192,0 0.384,0c0.768,-2.304 2.88,-3.84 5.376,-3.84c0.576,0 1.344,0.192 1.92,0.384c0.384,-4.416 4.032,-8.064 8.64,-8.064c3.456,0 6.72,2.112 8.064,5.376c1.344,-0.96 2.88,-1.536 4.416,-1.536c4.224,0 7.68,3.456 7.68,7.68v0.192c3.264,0.768 5.76,3.84 5.76,7.488c0,4.224 -3.456,7.68 -7.68,7.68z"/></g><g fill="#472b29"><path d="M62.4,138.24c-0.384,0 -1.536,0 -1.92,0c-0.576,0 -0.96,0.384 -0.96,0.96c0,0.576 0.384,0.96 0.96,0.96c0.384,0 1.536,0 1.92,0c0.576,0 0.96,-0.384 0.96,-0.96c0,-0.576 -0.384,-0.96 -0.96,-0.96z"/></g></g></g></g></svg>
